<?xml version="1.0" standalone="no"?>
<!DOCTYPE svg PUBLIC "-//W3C//DTD SVG 20010904//EN"
 "http://www.w3.org/TR/2001/REC-SVG-20010904/DTD/svg10.dtd">
<svg version="1.0" xmlns="http://www.w3.org/2000/svg"
 width="388.000000pt" height="130.000000pt" viewBox="0 0 388.000000 130.000000"
 preserveAspectRatio="xMidYMid meet">
<metadata>
Created by potrace 1.16, written by Peter Selinger 2001-2019
</metadata>
<g transform="translate(0.000000,130.000000) scale(0.100000,-0.100000)"
fill="#000000" stroke="none">
<path d="M645 1263 c17 -95 73 -173 152 -213 38 -19 68 -25 146 -28 l97 -4 0
-78 c0 -162 74 -268 213 -304 28 -8 55 -12 60 -9 4 2 7 148 7 323 0 318 0 319
-22 334 -19 14 -69 16 -341 16 l-319 0 7 -37z"/>
<path d="M2343 1220 c-29 -12 -43 -40 -43 -88 0 -106 147 -128 180 -27 27 82
-52 149 -137 115z"/>
<path d="M1988 773 c-3 -379 -4 -400 -24 -437 -31 -60 -73 -78 -164 -72 -41 2
-85 8 -97 11 -22 7 -23 5 -23 -63 0 -82 -4 -79 131 -89 110 -8 174 12 234 72
78 77 79 84 83 558 l3 417 -70 0 -70 0 -3 -397z"/>
<path d="M335 953 c20 -108 91 -196 182 -227 28 -10 80 -16 129 -16 l82 0 4
-97 c4 -104 20 -148 73 -211 29 -35 111 -77 168 -87 l37 -6 0 325 c0 324 0
325 -22 340 -19 14 -69 16 -341 16 l-319 0 7 -37z"/>
<path d="M3010 930 c-88 -10 -139 -38 -187 -102 l-23 -32 0 62 0 62 -70 0 -70
0 0 -395 0 -395 70 0 70 0 0 264 c0 162 4 276 11 293 15 42 68 92 109 103 19
5 63 10 98 10 l62 0 0 64 c0 36 -3 66 -7 68 -5 2 -33 1 -63 -2z"/>
<path d="M3378 927 c-169 -48 -265 -237 -239 -471 25 -219 141 -346 316 -346
93 0 204 56 245 123 l20 32 0 -67 0 -68 70 0 70 0 0 395 0 395 -70 0 -70 0 0
-62 c-1 -58 -2 -61 -16 -43 -59 80 -123 116 -218 121 -34 2 -82 -2 -108 -9z
m210 -132 c90 -38 124 -102 130 -244 5 -114 -5 -165 -44 -222 -67 -99 -254
-119 -332 -36 -48 50 -67 115 -67 227 0 119 12 165 58 217 60 68 170 93 255
58z"/>
<path d="M2320 525 l0 -395 70 0 70 0 0 395 0 395 -70 0 -70 0 0 -395z"/>
<path d="M24 671 c-8 -8 9 -76 28 -116 26 -52 73 -102 123 -128 30 -16 65 -23
140 -27 l100 -5 6 -95 c6 -100 22 -147 74 -208 29 -35 111 -78 168 -88 l37 -6
0 326 0 326 -25 16 c-22 14 -61 16 -336 13 -171 -2 -313 -6 -315 -8z"/>
</g>
</svg>
